<svg width="127" height="85" viewBox="0 0 127 85" fill="none" xmlns="http://www.w3.org/2000/svg">
<rect width="80" height="85" rx="7" fill="white"/>
<path d="M40 2.125L53.1348 10.9286L68 17.5313L66.2695 32.9375L68 48.3438L53.1348 54.9464L40 63.75L26.8654 54.9464L12 48.3438L13.7306 32.9375L12 17.5313L26.8654 10.9286L40 2.125Z" fill="#1B458D"/>
<path d="M56 32.9375C56 42.2876 48.6359 49.5 40 49.5C31.3641 49.5 24 42.2876 24 32.9375C24 23.5874 31.3641 16.375 40 16.375C48.6359 16.375 56 23.5874 56 32.9375Z" fill="white" stroke="white" stroke-width="20"/>
<ellipse cx="39.9995" cy="32.9375" rx="16" ry="15.9375" fill="#1B458D"/>
<path d="M17.66 75.9H22.19V78H14.75V76.05L19.25 69.57H14.75V67.47H22.19V69.42L17.66 75.9ZM34.6193 67.47V69.525H31.8293V78H29.2643V69.525H26.4743V67.47H34.6193ZM38.4716 71.025C38.7716 70.565 39.1466 70.205 39.5966 69.945C40.0466 69.675 40.5466 69.54 41.0966 69.54V72.255H40.3916C39.7516 72.255 39.2716 72.395 38.9516 72.675C38.6316 72.945 38.4716 73.425 38.4716 74.115V78H35.9066V69.63H38.4716V71.025ZM41.8126 73.8C41.8126 72.94 41.9726 72.185 42.2926 71.535C42.6226 70.885 43.0676 70.385 43.6276 70.035C44.1876 69.685 44.8126 69.51 45.5026 69.51C46.0926 69.51 46.6076 69.63 47.0476 69.87C47.4976 70.11 47.8426 70.425 48.0826 70.815V69.63H50.6476V78H48.0826V76.815C47.8326 77.205 47.4826 77.52 47.0326 77.76C46.5926 78 46.0776 78.12 45.4876 78.12C44.8076 78.12 44.1876 77.945 43.6276 77.595C43.0676 77.235 42.6226 76.73 42.2926 76.08C41.9726 75.42 41.8126 74.66 41.8126 73.8ZM48.0826 73.815C48.0826 73.175 47.9026 72.67 47.5426 72.3C47.1926 71.93 46.7626 71.745 46.2526 71.745C45.7426 71.745 45.3076 71.93 44.9476 72.3C44.5976 72.66 44.4226 73.16 44.4226 73.8C44.4226 74.44 44.5976 74.95 44.9476 75.33C45.3076 75.7 45.7426 75.885 46.2526 75.885C46.7626 75.885 47.1926 75.7 47.5426 75.33C47.9026 74.96 48.0826 74.455 48.0826 73.815ZM51.9932 73.8C51.9932 72.94 52.1532 72.185 52.4732 71.535C52.8032 70.885 53.2482 70.385 53.8082 70.035C54.3682 69.685 54.9932 69.51 55.6832 69.51C56.2332 69.51 56.7332 69.625 57.1832 69.855C57.6432 70.085 58.0032 70.395 58.2632 70.785V66.9H60.8282V78H58.2632V76.8C58.0232 77.2 57.6782 77.52 57.2282 77.76C56.7882 78 56.2732 78.12 55.6832 78.12C54.9932 78.12 54.3682 77.945 53.8082 77.595C53.2482 77.235 52.8032 76.73 52.4732 76.08C52.1532 75.42 51.9932 74.66 51.9932 73.8ZM58.2632 73.815C58.2632 73.175 58.0832 72.67 57.7232 72.3C57.3732 71.93 56.9432 71.745 56.4332 71.745C55.9232 71.745 55.4882 71.93 55.1282 72.3C54.7782 72.66 54.6032 73.16 54.6032 73.8C54.6032 74.44 54.7782 74.95 55.1282 75.33C55.4882 75.7 55.9232 75.885 56.4332 75.885C56.9432 75.885 57.3732 75.7 57.7232 75.33C58.0832 74.96 58.2632 74.455 58.2632 73.815ZM70.5739 73.68C70.5739 73.92 70.5589 74.17 70.5289 74.43H64.7239C64.7639 74.95 64.9289 75.35 65.2189 75.63C65.5189 75.9 65.8839 76.035 66.3139 76.035C66.9539 76.035 67.3989 75.765 67.6489 75.225H70.3789C70.2389 75.775 69.9839 76.27 69.6139 76.71C69.2539 77.15 68.7989 77.495 68.2489 77.745C67.6989 77.995 67.0839 78.12 66.4039 78.12C65.5839 78.12 64.8539 77.945 64.2139 77.595C63.5739 77.245 63.0739 76.745 62.7139 76.095C62.3539 75.445 62.1739 74.685 62.1739 73.815C62.1739 72.945 62.3489 72.185 62.6989 71.535C63.0589 70.885 63.5589 70.385 64.1989 70.035C64.8389 69.685 65.5739 69.51 66.4039 69.51C67.2139 69.51 67.9339 69.68 68.5639 70.02C69.1939 70.36 69.6839 70.845 70.0339 71.475C70.3939 72.105 70.5739 72.84 70.5739 73.68ZM67.9489 73.005C67.9489 72.565 67.7989 72.215 67.4989 71.955C67.1989 71.695 66.8239 71.565 66.3739 71.565C65.9439 71.565 65.5789 71.69 65.2789 71.94C64.9889 72.19 64.8089 72.545 64.7389 73.005H67.9489Z" fill="#1B458D"/>
</svg>
