<svg width="238" height="243" viewBox="0 0 238 243" fill="none" xmlns="http://www.w3.org/2000/svg">
<rect width="233" height="243" rx="7" fill="white"/>
<path d="M116.5 6.07495L154.755 31.2428L198.05 50.1187L193.01 94.1625L198.05 138.206L154.755 157.082L116.5 182.25L78.2456 157.082L34.9502 138.206L39.9907 94.1625L34.9502 50.1187L78.2456 31.2428L116.5 6.07495Z" fill="#1B458D"/>
<path d="M182.224 94.1624C182.224 130.605 152.772 160.1 116.499 160.1C80.2269 160.1 50.7744 130.605 50.7744 94.1624C50.7744 57.7196 80.2269 28.2249 116.499 28.2249C152.772 28.2249 182.224 57.7196 182.224 94.1624Z" fill="white" stroke="white" stroke-width="20"/>
<ellipse cx="116.499" cy="94.1624" rx="46.6" ry="45.5625" fill="#1B458D"/>
<path d="M56.784 210.96H67.656V216H49.8V211.32L60.6 195.768H49.8V190.728H67.656V195.408L56.784 210.96ZM97.4862 190.728V195.66H90.7902V216H84.6342V195.66H77.9382V190.728H97.4862ZM106.732 199.26C107.452 198.156 108.352 197.292 109.432 196.668C110.512 196.02 111.712 195.696 113.032 195.696V202.212H111.34C109.804 202.212 108.652 202.548 107.884 203.22C107.116 203.868 106.732 205.02 106.732 206.676V216H100.576V195.912H106.732V199.26ZM114.75 205.92C114.75 203.856 115.134 202.044 115.902 200.484C116.694 198.924 117.762 197.724 119.106 196.884C120.45 196.044 121.95 195.624 123.606 195.624C125.022 195.624 126.258 195.912 127.314 196.488C128.394 197.064 129.222 197.82 129.798 198.756V195.912H135.954V216H129.798V213.156C129.198 214.092 128.358 214.848 127.278 215.424C126.222 216 124.986 216.288 123.57 216.288C121.938 216.288 120.45 215.868 119.106 215.028C117.762 214.164 116.694 212.952 115.902 211.392C115.134 209.808 114.75 207.984 114.75 205.92ZM129.798 205.956C129.798 204.42 129.366 203.208 128.502 202.32C127.662 201.432 126.63 200.988 125.406 200.988C124.182 200.988 123.138 201.432 122.274 202.32C121.434 203.184 121.014 204.384 121.014 205.92C121.014 207.456 121.434 208.68 122.274 209.592C123.138 210.48 124.182 210.924 125.406 210.924C126.63 210.924 127.662 210.48 128.502 209.592C129.366 208.704 129.798 207.492 129.798 205.956ZM139.184 205.92C139.184 203.856 139.568 202.044 140.336 200.484C141.128 198.924 142.196 197.724 143.54 196.884C144.884 196.044 146.384 195.624 148.04 195.624C149.36 195.624 150.56 195.9 151.64 196.452C152.744 197.004 153.608 197.748 154.232 198.684V189.36H160.388V216H154.232V213.12C153.656 214.08 152.828 214.848 151.748 215.424C150.692 216 149.456 216.288 148.04 216.288C146.384 216.288 144.884 215.868 143.54 215.028C142.196 214.164 141.128 212.952 140.336 211.392C139.568 209.808 139.184 207.984 139.184 205.92ZM154.232 205.956C154.232 204.42 153.8 203.208 152.936 202.32C152.096 201.432 151.064 200.988 149.84 200.988C148.616 200.988 147.572 201.432 146.708 202.32C145.868 203.184 145.448 204.384 145.448 205.92C145.448 207.456 145.868 208.68 146.708 209.592C147.572 210.48 148.616 210.924 149.84 210.924C151.064 210.924 152.096 210.48 152.936 209.592C153.8 208.704 154.232 207.492 154.232 205.956ZM183.777 205.632C183.777 206.208 183.741 206.808 183.669 207.432H169.737C169.833 208.68 170.229 209.64 170.925 210.312C171.645 210.96 172.521 211.284 173.553 211.284C175.089 211.284 176.157 210.636 176.757 209.34H183.309C182.973 210.66 182.361 211.848 181.473 212.904C180.609 213.96 179.517 214.788 178.197 215.388C176.877 215.988 175.401 216.288 173.769 216.288C171.801 216.288 170.049 215.868 168.513 215.028C166.977 214.188 165.777 212.988 164.913 211.428C164.049 209.868 163.617 208.044 163.617 205.956C163.617 203.868 164.037 202.044 164.877 200.484C165.741 198.924 166.941 197.724 168.477 196.884C170.013 196.044 171.777 195.624 173.769 195.624C175.713 195.624 177.441 196.032 178.953 196.848C180.465 197.664 181.641 198.828 182.481 200.34C183.345 201.852 183.777 203.616 183.777 205.632ZM177.477 204.012C177.477 202.956 177.117 202.116 176.397 201.492C175.677 200.868 174.777 200.556 173.697 200.556C172.665 200.556 171.789 200.856 171.069 201.456C170.373 202.056 169.941 202.908 169.773 204.012H177.477Z" fill="#1B458D"/>
</svg>
